<?xml version="1.0" encoding="UTF-8"?>
<svg width="800px" height="600px" viewBox="0 0 800 600" version="1.1" xmlns="http://www.w3.org/2000/svg" xmlns:xlink="http://www.w3.org/1999/xlink">
    <defs>
        <linearGradient id="backgroundGrad" x1="0%" y1="0%" x2="100%" y2="100%">
            <stop offset="0%" style="stop-color:#0F172A;stop-opacity:1" />
            <stop offset="100%" style="stop-color:#1E293B;stop-opacity:1" />
        </linearGradient>
        <linearGradient id="primaryGrad" x1="0%" y1="0%" x2="100%" y2="100%">
            <stop offset="0%" style="stop-color:#3AFFEC;stop-opacity:1" />
            <stop offset="100%" style="stop-color:#2DD4BF;stop-opacity:1" />
        </linearGradient>
        <linearGradient id="upTrendGrad" x1="0%" y1="0%" x2="100%" y2="0%">
            <stop offset="0%" style="stop-color:#10B981;stop-opacity:1" />
            <stop offset="100%" style="stop-color:#34D399;stop-opacity:1" />
        </linearGradient>
        <linearGradient id="profitBoxGrad" x1="0%" y1="0%" x2="100%" y2="100%">
            <stop offset="0%" style="stop-color:rgba(45, 212, 191, 0.15);stop-opacity:1" />
            <stop offset="100%" style="stop-color:rgba(45, 212, 191, 0.05);stop-opacity:1" />
        </linearGradient>
        <filter id="glow" x="-20%" y="-20%" width="140%" height="140%">
            <feGaussianBlur stdDeviation="8" result="blur" />
            <feComposite in="SourceGraphic" in2="blur" operator="over" />
        </filter>
    </defs>
    
    <!-- Background -->
    <rect width="800" height="600" fill="url(#backgroundGrad)" rx="20" />

    <!-- Grid lines -->
    <g opacity="0.15" stroke="#FFFFFF" stroke-dasharray="4,4">
        <line x1="100" y1="500" x2="700" y2="500" />
        <line x1="100" y1="400" x2="700" y2="400" />
        <line x1="100" y1="300" x2="700" y2="300" />
        <line x1="100" y1="200" x2="700" y2="200" />
        <line x1="100" y1="100" x2="700" y2="100" />
        <line x1="100" y1="100" x2="100" y2="500" />
        <line x1="220" y1="100" x2="220" y2="500" />
        <line x1="340" y1="100" x2="340" y2="500" />
        <line x1="460" y1="100" x2="460" y2="500" />
        <line x1="580" y1="100" x2="580" y2="500" />
        <line x1="700" y1="100" x2="700" y2="500" />
    </g>

    <!-- Chart axes -->
    <g stroke="#FFFFFF" stroke-width="2">
        <line x1="100" y1="500" x2="700" y2="500" />
        <line x1="100" y1="100" x2="100" y2="500" />
    </g>

    <!-- Arbitrage Path -->
    <g filter="url(#glow)">
        <path d="M100,400 C150,380 180,440 220,400 C260,360 280,320 340,270 C400,220 440,300 460,250 C480,200 510,150 580,180 C650,210 680,150 700,120" 
              fill="none" stroke="url(#primaryGrad)" stroke-width="3" stroke-linecap="round" />
        
        <!-- Arbitrage markers -->
        <circle cx="220" cy="400" r="8" fill="#0F172A" stroke="url(#primaryGrad)" stroke-width="2" />
        <circle cx="340" cy="270" r="8" fill="#0F172A" stroke="url(#primaryGrad)" stroke-width="2" />
        <circle cx="460" cy="250" r="8" fill="#0F172A" stroke="url(#primaryGrad)" stroke-width="2" />
        <circle cx="580" cy="180" r="8" fill="#0F172A" stroke="url(#primaryGrad)" stroke-width="2" />
    </g>

    <!-- Profit indicators -->
    <g>
        <rect x="280" y="420" width="240" height="60" rx="10" fill="url(#profitBoxGrad)" stroke="url(#primaryGrad)" stroke-width="1.5" />
        <text x="400" y="450" fill="white" font-family="Arial, sans-serif" font-size="18" text-anchor="middle" font-weight="bold">MAXIMIZE PROFITS</text>
        <text x="400" y="472" fill="#94A3B8" font-family="Arial, sans-serif" font-size="14" text-anchor="middle">Cross-exchange arbitrage opportunities</text>
    </g>

    <!-- Trend arrows -->
    <g filter="url(#glow)" opacity="0.9">
        <path d="M700,120 L720,100 L740,120" stroke="url(#upTrendGrad)" stroke-width="3" fill="none" stroke-linecap="round" stroke-linejoin="round" />
        <path d="M580,180 L600,160 L620,180" stroke="url(#upTrendGrad)" stroke-width="3" fill="none" stroke-linecap="round" stroke-linejoin="round" />
    </g>

    <!-- ROI percentage -->
    <g>
        <circle cx="700" cy="120" r="30" fill="rgba(16, 185, 129, 0.2)" stroke="url(#upTrendGrad)" stroke-width="2" />
        <text x="700" y="125" fill="white" font-family="Arial, sans-serif" font-size="16" text-anchor="middle" font-weight="bold">+24%</text>
    </g>

    <!-- Exchange logos (simplified) -->
    <g>
        <circle cx="220" cy="400" r="15" fill="#1E293B" stroke="#475569" stroke-width="1" />
        <text x="220" y="405" fill="white" font-family="Arial, sans-serif" font-size="10" text-anchor="middle" font-weight="bold">EX1</text>
        
        <circle cx="340" cy="270" r="15" fill="#1E293B" stroke="#475569" stroke-width="1" />
        <text x="340" y="275" fill="white" font-family="Arial, sans-serif" font-size="10" text-anchor="middle" font-weight="bold">EX2</text>
        
        <circle cx="460" cy="250" r="15" fill="#1E293B" stroke="#475569" stroke-width="1" />
        <text x="460" y="255" fill="white" font-family="Arial, sans-serif" font-size="10" text-anchor="middle" font-weight="bold">EX3</text>
        
        <circle cx="580" cy="180" r="15" fill="#1E293B" stroke="#475569" stroke-width="1" />
        <text x="580" y="185" fill="white" font-family="Arial, sans-serif" font-size="10" text-anchor="middle" font-weight="bold">EX4</text>
    </g>

    <!-- Digital particles -->
    <g opacity="0.7">
        <circle cx="150" cy="350" r="2" fill="#3AFFEC" />
        <circle cx="250" cy="320" r="2" fill="#3AFFEC" />
        <circle cx="320" cy="220" r="2" fill="#3AFFEC" />
        <circle cx="400" cy="280" r="2" fill="#3AFFEC" />
        <circle cx="480" cy="200" r="2" fill="#3AFFEC" />
        <circle cx="550" cy="160" r="2" fill="#3AFFEC" />
        <circle cx="610" cy="140" r="2" fill="#3AFFEC" />
        <circle cx="670" cy="90" r="2" fill="#3AFFEC" />
    </g>

    <!-- Currency symbols -->
    <g opacity="0.8">
        <text x="180" y="390" fill="#F59E0B" font-family="Arial, sans-serif" font-size="14" text-anchor="middle">₿</text>
        <text x="300" y="260" fill="#3B82F6" font-family="Arial, sans-serif" font-size="14" text-anchor="middle">Ξ</text>
        <text x="420" y="240" fill="#10B981" font-family="Arial, sans-serif" font-size="14" text-anchor="middle">₮</text>
        <text x="540" y="170" fill="#F59E0B" font-family="Arial, sans-serif" font-size="14" text-anchor="middle">₿</text>
        <text x="640" y="130" fill="#3B82F6" font-family="Arial, sans-serif" font-size="14" text-anchor="middle">Ξ</text>
    </g>
</svg> 