<svg width="1200" height="600" viewBox="0 0 1200 600" xmlns="http://www.w3.org/2000/svg">
  <!-- Background -->
  <rect width="1200" height="600" fill="#1f1f23" rx="12" ry="12"/>
  
  <!-- Header -->
  <rect x="20" y="20" width="1160" height="60" fill="#272730" rx="8" ry="8"/>
  <circle cx="50" cy="50" r="15" fill="#3a9188"/>
  <rect x="80" y="40" width="120" height="20" fill="#3a9188" rx="4" ry="4"/>
  <rect x="880" y="40" width="80" height="20" fill="#2a2a35" rx="4" ry="4"/>
  <rect x="980" y="40" width="80" height="20" fill="#2a2a35" rx="4" ry="4"/>
  <rect x="1080" y="40" width="80" height="20" fill="#2a2a35" rx="4" ry="4"/>
  
  <!-- Main content -->
  <rect x="20" y="100" width="760" height="400" fill="#272730" rx="8" ry="8"/>
  
  <!-- Chart -->
  <path d="M40,460 L40,140 L760,140" stroke="#3a3a48" stroke-width="2" fill="none"/>
  <path d="M40,460 L160,350 L280,380 L400,280 L520,330 L640,220 L760,180" stroke="#3a9188" stroke-width="3" fill="none"/>
  <path d="M40,460 L160,400 L280,420 L400,350 L520,370 L640,300 L760,320" stroke="#4cb8ac" stroke-width="3" fill="none"/>
  
  <!-- Chart labels -->
  <rect x="40" y="480" width="720" height="20" fill="#272730" rx="4" ry="4"/>
  <rect x="40" y="480" width="120" height="20" fill="#2a2a35" rx="4" ry="4"/>
  <rect x="180" y="480" width="120" height="20" fill="#2a2a35" rx="4" ry="4"/>
  <rect x="320" y="480" width="120" height="20" fill="#2a2a35" rx="4" ry="4"/>
  <rect x="460" y="480" width="120" height="20" fill="#2a2a35" rx="4" ry="4"/>
  <rect x="600" y="480" width="120" height="20" fill="#2a2a35" rx="4" ry="4"/>
  
  <!-- Side panel -->
  <rect x="800" y="100" width="380" height="480" fill="#272730" rx="8" ry="8"/>
  
  <!-- Market Pairs -->
  <rect x="820" y="120" width="340" height="40" fill="#2a2a35" rx="6" ry="6"/>
  <rect x="830" y="130" width="20" height="20" fill="#3a9188" rx="4" ry="4"/>
  <rect x="860" y="130" width="80" height="20" fill="#3a3a48" rx="4" ry="4"/>
  <rect x="1040" y="130" width="60" height="20" fill="#4cb8ac" rx="4" ry="4"/>
  <rect x="1110" y="130" width="40" height="20" fill="#3a9188" rx="4" ry="4"/>
  
  <rect x="820" y="170" width="340" height="40" fill="#2a2a35" rx="6" ry="6"/>
  <rect x="830" y="180" width="20" height="20" fill="#3a9188" rx="4" ry="4"/>
  <rect x="860" y="180" width="80" height="20" fill="#3a3a48" rx="4" ry="4"/>
  <rect x="1040" y="180" width="60" height="20" fill="#e54b4b" rx="4" ry="4"/>
  <rect x="1110" y="180" width="40" height="20" fill="#3a9188" rx="4" ry="4"/>
  
  <rect x="820" y="220" width="340" height="40" fill="#2a2a35" rx="6" ry="6"/>
  <rect x="830" y="230" width="20" height="20" fill="#3a9188" rx="4" ry="4"/>
  <rect x="860" y="230" width="80" height="20" fill="#3a3a48" rx="4" ry="4"/>
  <rect x="1040" y="230" width="60" height="20" fill="#4cb8ac" rx="4" ry="4"/>
  <rect x="1110" y="230" width="40" height="20" fill="#3a9188" rx="4" ry="4"/>
  
  <rect x="820" y="270" width="340" height="40" fill="#2a2a35" rx="6" ry="6"/>
  <rect x="830" y="280" width="20" height="20" fill="#3a9188" rx="4" ry="4"/>
  <rect x="860" y="280" width="80" height="20" fill="#3a3a48" rx="4" ry="4"/>
  <rect x="1040" y="280" width="60" height="20" fill="#4cb8ac" rx="4" ry="4"/>
  <rect x="1110" y="280" width="40" height="20" fill="#3a9188" rx="4" ry="4"/>
  
  <!-- Opportunity section -->
  <rect x="820" y="340" width="340" height="220" fill="#2a2a35" rx="8" ry="8"/>
  <rect x="840" y="360" width="120" height="24" fill="#3a3a48" rx="4" ry="4"/>
  
  <rect x="840" y="400" width="300" height="30" fill="#272730" rx="4" ry="4"/>
  <rect x="850" y="405" width="180" height="20" fill="#3a3a48" rx="4" ry="4"/>
  <rect x="1040" y="405" width="90" height="20" fill="#3a9188" rx="4" ry="4"/>
  
  <rect x="840" y="440" width="300" height="30" fill="#272730" rx="4" ry="4"/>
  <rect x="850" y="445" width="180" height="20" fill="#3a3a48" rx="4" ry="4"/>
  <rect x="1040" y="445" width="90" height="20" fill="#e54b4b" rx="4" ry="4"/>
  
  <rect x="840" y="480" width="300" height="30" fill="#272730" rx="4" ry="4"/>
  <rect x="850" y="485" width="180" height="20" fill="#3a3a48" rx="4" ry="4"/>
  <rect x="1040" y="485" width="90" height="20" fill="#3a9188" rx="4" ry="4"/>
  
  <rect x="840" y="520" width="300" height="20" fill="#3a9188" rx="10" ry="10"/>
  
  <!-- Text label "Crypto Spread Seeker Pro" for the preview -->
  <text x="600" y="300" text-anchor="middle" font-family="Arial, sans-serif" font-size="36" font-weight="bold" fill="#3a9188">Crypto Spread Seeker Pro</text>
</svg> 